# xmcd CD database file
# Generated: Wed Oct 24 00:49:56 2001 by KSCD
# 
# Track frame offsets:
#       150
#       13740
#       26362
#       38995
#       51825
#       67052
#       80810
#       95085
#       106522
#       119225
#       131110
#       143915
#       156990
#       168087
#       180652
#       192415
#       206700
#       218772
#       230332
#       242892
#
# Disc length: 3400 seconds
#
# Revision: 2
# Processed by: cddbd v1.4PL0 Copyright (c) Steve Scherf et al.
# Submitted via: Kscd 1.2.7
#
DISCID=280d4614
DTITLE=Various Artist - Bad luck blues CD 1
DYEAR=1900
DGENRE=
TTITLE0=Huddie Leadbelly Ledbetter - Roberta
TTITLE1=Big Bill Broonzy - Long tall mama
TTITLE2=Big Bill Broonzy - Pig meat strut
TTITLE3=Mississippi John Hurt - Got the blues
TTITLE4=Mississippi John Hurt - Frankie
TTITLE5=James Edward Yancey - La salle street breakdown
TTITLE6=Sleepy John Estes - Floating bridge
TTITLE7=Sleepy John Estes - You shouldn't do that
TTITLE8=Sleepy John Estes -  New someday baby
TTITLE9=Sleepy John Estes - Jack and Jill blues
TTITLE10=Blind Willie McTell - It's a good little thing
TTITLE11=Blind Willie McTell - Love-makin' mama
TTITLE12=James Kokomo Arnold - Goin' down in Galilee
TTITLE13=James Kokomo Arnold - Bad luck blues
TTITLE14=Arthur William Big Boy Crudup - Mean Old Frisco blues
TTITLE15=Arthur William Big Boy Crudup - Just like a spider
TTITLE16=Fulton Allen Blind Boy Fuller - You got to have your dollar
TTITLE17=Fulton Allen Blind Boy Fuller - Bye bye baby blues
TTITLE18=Fulton Allen Blind Boy Fuller - Somebody's been talkin'
TTITLE19=Fulton Allen Blind Boy Fuller - I want some of your pie
EXTD=
EXTT0=
EXTT1=
EXTT2=
EXTT3=
EXTT4=
EXTT5=
EXTT6=
EXTT7=
EXTT8=
EXTT9=
EXTT10=
EXTT11=
EXTT12=
EXTT13=
EXTT14=
EXTT15=
EXTT16=
EXTT17=
EXTT18=
EXTT19=
PLAYORDER=
